<?xml version="1.0" encoding="utf-8"?>
<!-- Generator: Adobe Illustrator 26.3.1, SVG Export Plug-In . SVG Version: 6.00 Build 0)  -->
<svg version="1.1" xmlns="http://www.w3.org/2000/svg" xmlns:xlink="http://www.w3.org/1999/xlink" x="0px" y="0px"
	 viewBox="0 0 17 17" style="enable-background:new 0 0 17 17;" xml:space="preserve">
<style type="text/css">
	.st0{fill:none;stroke:#383838;stroke-width:0.25;stroke-miterlimit:10;}
	.st1{fill:none;stroke:#383838;stroke-width:0.25;stroke-linecap:round;stroke-miterlimit:10;}
	.st2{fill:none;stroke:#FFFFFF;stroke-width:0.25;stroke-miterlimit:10;}
	.st3{fill:none;stroke:#FFFFFF;stroke-width:0.25;stroke-linecap:round;stroke-miterlimit:10;}
	.st4{display:none;}
	.st5{display:inline;fill:none;stroke:#262626;stroke-width:0.25;stroke-miterlimit:10;}
	.st6{display:inline;fill:none;stroke:#262626;stroke-width:0.25;stroke-linecap:round;stroke-miterlimit:10;}
	
		.st7{display:inline;fill:none;stroke:#FFFFFF;stroke-width:0.25;stroke-linecap:round;stroke-linejoin:round;stroke-miterlimit:10;}
	.st8{display:inline;fill:#FFFFFF;}
	.st9{display:inline;fill:none;stroke:#FFFFFF;stroke-width:0.25;stroke-linecap:round;stroke-miterlimit:10;}
	.st10{display:inline;fill:none;stroke:#FFFFFF;stroke-width:0.35;stroke-linecap:round;stroke-miterlimit:10;}
</style>
<g id="Calque_3">
	<g id="Calque_2">
		<circle class="st0" cx="8.5" cy="8.5" r="5.7"/>
		<line class="st1" x1="4.2" y1="16.1" x2="5.6" y2="13.4"/>
		<line class="st1" x1="11.4" y1="3.5" x2="12.8" y2="1"/>
		<circle class="st2" cx="8.5" cy="8.6" r="2.4"/>
		<polyline class="st3" points="8.5,6.9 8.5,8.6 9.4,9.5 		"/>
	</g>
</g>
<g id="Calque_4" class="st4">
	<circle class="st5" cx="8.5" cy="8.5" r="5.7"/>
	<line class="st6" x1="4.2" y1="16.1" x2="5.6" y2="13.4"/>
	<line class="st6" x1="11.4" y1="3.5" x2="12.8" y2="1"/>
	<polyline class="st7" points="6,9.2 7.1,9.2 7.8,6.8 8.5,10.4 9.1,8.5 9.3,9.2 9.9,9.2 	"/>
	<circle class="st8" cx="10.2" cy="9.2" r="0.5"/>
</g>
<g id="Calque_5" class="st4">
	<circle class="st5" cx="8.5" cy="8.5" r="5.7"/>
	<line class="st6" x1="4.2" y1="16.1" x2="5.6" y2="13.4"/>
	<line class="st6" x1="11.4" y1="3.5" x2="12.8" y2="0.9"/>
	<path class="st9" d="M10.1,10.8h-3c-0.3,0-0.5-0.2-0.5-0.5V8.5C6.6,8.2,6.8,8,7.1,8h3c0.3,0,0.5,0.2,0.5,0.5v1.8
		C10.6,10.6,10.4,10.8,10.1,10.8z"/>
	<path class="st9" d="M7.4,7.4c0-0.6,0.5-1.1,1.1-1.1c0.6,0,1.1,0.5,1.1,1.1"/>
	<line class="st9" x1="9.7" y1="7.4" x2="9.7" y2="8"/>
	<line class="st9" x1="7.4" y1="7.4" x2="7.4" y2="8"/>
	<circle class="st8" cx="8.6" cy="9" r="0.3"/>
	<line class="st10" x1="8.6" y1="9" x2="8.6" y2="10"/>
</g>
</svg>
