<?xml version="1.0" encoding="utf-8"?>
<!-- Generator: Adobe Illustrator 26.3.1, SVG Export Plug-In . SVG Version: 6.00 Build 0)  -->
<svg version="1.1" id="Calque_1" xmlns="http://www.w3.org/2000/svg" xmlns:xlink="http://www.w3.org/1999/xlink" x="0px" y="0px"
	 viewBox="0 0 17 17" style="enable-background:new 0 0 17 17;" xml:space="preserve">
<style type="text/css">
	.st0{fill:#F60B0E;}
</style>
<path class="st0" d="M15.9,3.8H15V3.5C15,3.2,14.7,3,14.4,3h-0.8C13.3,3,13,3.2,13,3.5v0.3h-1.5v0c0-0.4-0.2-0.7-0.6-0.8V2.1
	c0-0.5-0.4-0.8-0.8-0.8H6.8C6.3,1.3,6,1.7,6,2.1V3C5.6,3.2,5.4,3.5,5.4,3.8v0H4V3.5C4,3.2,3.7,3,3.4,3H2.6C2.3,3,2,3.2,2,3.5v0.3
	H1.1c-0.5,0-0.8,0.4-0.8,0.8v10.2c0,0.5,0.4,0.8,0.8,0.8h14.7c0.5,0,0.8-0.4,0.8-0.8V4.7C16.7,4.2,16.3,3.8,15.9,3.8z M15,4.4v10.8
	H2V4.4H15z M13.6,3.5C13.6,3.5,13.6,3.5,13.6,3.5l0.9,0c0,0,0,0,0,0v0.3h-0.9V3.5z M11.1,3.8h-0.6v0c0-0.2,0.1-0.3,0.3-0.3
	S11.1,3.7,11.1,3.8L11.1,3.8z M6.8,1.8h3.4c0.2,0,0.3,0.1,0.3,0.3V3c-0.3,0.1-0.6,0.4-0.6,0.8v0H7.1v0c0-0.4-0.2-0.7-0.6-0.8V2.1
	C6.5,2,6.6,1.8,6.8,1.8z M5.9,3.8c0-0.2,0.1-0.3,0.3-0.3s0.3,0.1,0.3,0.3v0L5.9,3.8L5.9,3.8z M2.5,3.5C2.5,3.5,2.5,3.5,2.5,3.5
	l0.9,0c0,0,0,0,0,0v0.3H2.5V3.5z M0.8,14.9V4.7c0-0.2,0.1-0.3,0.3-0.3h0.3v10.8H1.1C1,15.2,0.8,15,0.8,14.9z M16.2,14.9
	c0,0.2-0.1,0.3-0.3,0.3h-0.3V4.4h0.3c0.2,0,0.3,0.1,0.3,0.3V14.9z"/>
</svg>
