<?xml version="1.0" encoding="utf-8"?>
<!-- Generator: Adobe Illustrator 26.3.1, SVG Export Plug-In . SVG Version: 6.00 Build 0)  -->
<svg version="1.1" id="Calque_1" xmlns="http://www.w3.org/2000/svg" xmlns:xlink="http://www.w3.org/1999/xlink" x="0px" y="0px"
	 viewBox="0 0 17 17" style="enable-background:new 0 0 17 17;" xml:space="preserve">
<style type="text/css">
	.st0{fill:#C2C2C2;}
</style>
<g id="XMLID_818_">
	<path id="XMLID_819_" class="st0" d="M16.2,10.3c0.1-0.5,0.2-1.1,0.2-1.7c0-4.3-3.5-7.7-7.7-7.7c-0.5,0-0.9,0-1.3,0.1
		C6.6,0.5,5.8,0.3,4.9,0.3c-2.5,0-4.5,2-4.5,4.5c0,0.8,0.2,1.6,0.6,2.3C1,7.6,0.9,8.1,0.9,8.6c0,4.3,3.5,7.7,7.7,7.7
		c0.5,0,1,0,1.4-0.1c0.6,0.3,1.4,0.5,2.1,0.5c2.5,0,4.5-2,4.5-4.5C16.7,11.5,16.5,10.9,16.2,10.3z M12.6,12.3
		c-0.4,0.5-0.9,0.9-1.6,1.2c-0.7,0.3-1.5,0.4-2.4,0.4c-1.1,0-2-0.2-2.8-0.6c-0.5-0.3-0.9-0.7-1.3-1.1c-0.3-0.5-0.5-0.9-0.5-1.4
		c0-0.3,0.1-0.5,0.3-0.7c0.2-0.2,0.5-0.3,0.8-0.3c0.3,0,0.5,0.1,0.7,0.2c0.2,0.2,0.3,0.4,0.5,0.7c0.1,0.3,0.3,0.6,0.4,0.8
		c0.2,0.2,0.4,0.4,0.6,0.5c0.3,0.1,0.7,0.2,1.1,0.2c0.6,0,1.2-0.1,1.6-0.4c0.4-0.3,0.6-0.6,0.6-1c0-0.3-0.1-0.5-0.3-0.7
		c-0.2-0.2-0.5-0.4-0.8-0.5C9.2,9.5,8.7,9.4,8.2,9.3c-0.8-0.2-1.5-0.4-2-0.6c0,0,0,0,0,0c-0.6-0.2-1-0.6-1.3-1
		C4.5,7.3,4.3,6.7,4.3,6.1c0-0.6,0.2-1.1,0.5-1.6c0.3-0.5,0.9-0.8,1.5-1C7,3.3,7.7,3.2,8.6,3.2c0.7,0,1.3,0.1,1.8,0.2
		c0.5,0.2,0.9,0.4,1.3,0.6c0.3,0.3,0.6,0.6,0.8,0.8c0.2,0.3,0.2,0.6,0.2,0.9c0,0.3-0.1,0.5-0.3,0.7c-0.2,0.2-0.5,0.3-0.8,0.3
		c-0.3,0-0.5-0.1-0.7-0.2c-0.1-0.1-0.3-0.3-0.5-0.6C10.2,5.7,10,5.4,9.7,5.2C9.5,5,9,4.9,8.4,4.9c-0.6,0-1,0.1-1.3,0.3
		C6.8,5.4,6.6,5.6,6.6,5.9c0,0.2,0.1,0.3,0.2,0.5C6.9,6.5,7,6.6,7.2,6.7C7.4,6.8,7.7,6.9,7.9,7C8.1,7,8.4,7.1,8.9,7.2
		c0.5,0.1,1,0.2,1.4,0.4c0.1,0,0.2,0.1,0.3,0.1c0.5,0.2,1,0.4,1.3,0.6c0.4,0.2,0.7,0.6,0.9,0.9c0.2,0.4,0.3,0.8,0.3,1.4
		C13.2,11.2,13,11.8,12.6,12.3z"/>
</g>
</svg>
