<?xml version="1.0" encoding="utf-8"?>
<!-- Generator: Adobe Illustrator 26.3.1, SVG Export Plug-In . SVG Version: 6.00 Build 0)  -->
<svg version="1.1" id="Calque_1" xmlns="http://www.w3.org/2000/svg" xmlns:xlink="http://www.w3.org/1999/xlink" x="0px" y="0px"
	 viewBox="0 0 17 17" style="enable-background:new 0 0 17 17;" xml:space="preserve">
<style type="text/css">
	.st0{fill:#FFFFFF;}
	.st1{fill:none;stroke:#717171;stroke-width:0.75;stroke-miterlimit:10;}
</style>
<g>
	<g>
		<path class="st0" d="M13.1,5.3c0-0.3-0.3-0.6-0.6-0.6h-1.1V4.1c0-0.2-0.1-0.3-0.3-0.3h-0.6c-0.2,0-0.3,0.1-0.3,0.3v0.6H6.6V4.1
			c0-0.2-0.1-0.3-0.3-0.3H5.9c-0.2,0-0.3,0.1-0.3,0.3v0.6H4.4c-0.3,0-0.6,0.3-0.6,0.6v2.3h0.3v5c0,0.3,0.3,0.7,0.7,0.7h7.3
			c0.3,0,0.7-0.3,0.7-0.7v-5h0.4L13.1,5.3L13.1,5.3z M11.7,11.5c0,0.3-0.3,0.7-0.7,0.7H5.9c-0.3,0-0.7-0.3-0.7-0.7V7.6h6.4V11.5
			L11.7,11.5z"/>
		<rect x="6.1" y="8.3" class="st0" width="1.1" height="1.1"/>
		<rect x="7.9" y="8.3" class="st0" width="1.1" height="1.1"/>
		<rect x="9.7" y="8.3" class="st0" width="1.1" height="1.1"/>
		<rect x="6.1" y="10.2" class="st0" width="1.1" height="1.1"/>
		<rect x="7.9" y="10.2" class="st0" width="1.1" height="1.1"/>
		<rect x="9.7" y="10.2" class="st0" width="1.1" height="1.1"/>
	</g>
</g>
<circle class="st1" cx="8.5" cy="8.5" r="7.9"/>
</svg>
