<?xml version="1.0" encoding="utf-8"?>
<!-- Generator: Adobe Illustrator 26.3.1, SVG Export Plug-In . SVG Version: 6.00 Build 0)  -->
<svg version="1.1" id="Calque_1" xmlns="http://www.w3.org/2000/svg" xmlns:xlink="http://www.w3.org/1999/xlink" x="0px" y="0px"
	 viewBox="0 0 17 17" style="enable-background:new 0 0 17 17;" xml:space="preserve">
<style type="text/css">
	.st0{fill:#C2C2C2;}
</style>
<path class="st0" d="M8.5,9c2.3,0,4.1-1.9,4.1-4.1c0-2.3-1.8-4.1-4.1-4.1S4.4,2.6,4.4,4.9C4.4,7.2,6.2,9,8.5,9z"/>
<path class="st0" d="M5.2,10.5c0.2-0.1,0.5,0.1,0.6,0.3l1.9,1.4c0.8,0,0.8,0,1.7,0l1.9-1.4c0.1-0.2,0.3-0.3,0.6-0.3
	c2.5,0.6,5,1.8,5,3.7v2.1H0.3v-2.1C0.3,12.3,2.8,11.1,5.2,10.5z"/>
</svg>
