<?xml version="1.0" encoding="utf-8"?>
<!-- Generator: Adobe Illustrator 26.3.1, SVG Export Plug-In . SVG Version: 6.00 Build 0)  -->
<svg version="1.1" id="Calque_1" xmlns="http://www.w3.org/2000/svg" xmlns:xlink="http://www.w3.org/1999/xlink" x="0px" y="0px"
	 viewBox="0 0 17 17" style="enable-background:new 0 0 17 17;" xml:space="preserve">
<style type="text/css">
	.st0{fill:#F60B0E;}
</style>
<path class="st0" d="M14.2,7.4c0.1-0.3,0.1-0.7,0.1-1.1c0-3.3-2.6-6-5.8-6S2.7,3,2.7,6.3c0,0.4,0,0.7,0.1,1.1C2.3,7.7,2,8.3,2,9v5.8
	c0,1,0.8,1.8,1.8,1.8h9.5c1,0,1.8-0.8,1.8-1.8V9C15,8.3,14.7,7.7,14.2,7.4z M8.5,2.5c2,0,3.7,1.7,3.7,3.8c0,0.3-0.1,0.6-0.1,0.8H4.9
	c0-0.3-0.1-0.5-0.1-0.8C4.8,4.2,6.4,2.5,8.5,2.5z"/>
</svg>
