<?xml version="1.0" encoding="utf-8"?>
<!-- Generator: Adobe Illustrator 26.3.1, SVG Export Plug-In . SVG Version: 6.00 Build 0)  -->
<svg version="1.1" id="Calque_1" xmlns="http://www.w3.org/2000/svg" xmlns:xlink="http://www.w3.org/1999/xlink" x="0px" y="0px"
	 viewBox="0 0 17 17" style="enable-background:new 0 0 17 17;" xml:space="preserve">
<style type="text/css">
	.st0{fill:#C2C2C2;}
</style>
<g>
	<g>
		<path class="st0" d="M8.5,0.3C4,0.3,0.3,4,0.3,8.5s3.6,8.2,8.2,8.2s8.2-3.6,8.2-8.2S13,0.3,8.5,0.3z M8.5,15.3
			c-3.8,0-6.8-3.1-6.8-6.8s3.1-6.8,6.8-6.8s6.8,3.1,6.8,6.8S12.3,15.3,8.5,15.3z"/>
	</g>
</g>
<g>
	<g>
		<path class="st0" d="M10.6,7.8H9.2V4.5c0-0.4-0.3-0.7-0.7-0.7c-0.4,0-0.7,0.3-0.7,0.7v4c0,0.4,0.3,0.7,0.7,0.7h2.1
			c0.4,0,0.7-0.3,0.7-0.7C11.3,8.1,11,7.8,10.6,7.8z"/>
	</g>
</g>
</svg>
