<?xml version="1.0" encoding="utf-8"?>
<!-- Generator: Adobe Illustrator 26.3.1, SVG Export Plug-In . SVG Version: 6.00 Build 0)  -->
<svg version="1.1" id="Calque_1" xmlns="http://www.w3.org/2000/svg" xmlns:xlink="http://www.w3.org/1999/xlink" x="0px" y="0px"
	 viewBox="0 0 17 17" style="enable-background:new 0 0 17 17;" xml:space="preserve">
<style type="text/css">
	.st0{fill:none;stroke:#FFFFFF;stroke-miterlimit:10;}
</style>
<path class="st0" d="M8.5,9c2.1,0,3.7-1.7,3.7-3.7c0-2.1-1.6-3.7-3.7-3.7S4.8,3.2,4.8,5.3S6.4,9,8.5,9z"/>
<path class="st0" d="M5.5,10.3c0.2-0.1,0.4,0.1,0.5,0.3l1.7,1.3c0.7,0,0.7,0,1.5,0l1.7-1.3c0.1-0.2,0.3-0.3,0.5-0.3
	c2.2,0.5,4.5,1.6,4.5,3.3v1.9H1.1v-1.9C1.1,11.9,3.4,10.8,5.5,10.3z"/>
</svg>
