<?xml version="1.0" encoding="utf-8"?>
<!-- Generator: Adobe Illustrator 26.3.1, SVG Export Plug-In . SVG Version: 6.00 Build 0)  -->
<svg version="1.1" id="Calque_1" xmlns="http://www.w3.org/2000/svg" xmlns:xlink="http://www.w3.org/1999/xlink" x="0px" y="0px"
	 viewBox="0 0 17 17" style="enable-background:new 0 0 17 17;" xml:space="preserve">
<style type="text/css">
	.st0{fill:#F60B0E;}
</style>
<g>
	<g>
		<g>
			<path class="st0" d="M16.6,10.7l-2.1-5.9c-0.2-0.5-0.7-0.9-1.3-0.9c-0.4,0-8.8,0-9.6,0c-0.6,0-1.1,0.4-1.3,0.9l-2.1,5.9
				c-0.5,1.5,0.6,3,2.1,3c1,0,1.8-0.6,2.1-1.5l0.3-1c0.1-0.3,0.4-0.6,0.8-0.6h0.1c0.2,0.4,0.6,0.7,1.1,0.7c0.5,0,0.9-0.3,1.1-0.7H9
				c0.2,0.4,0.6,0.7,1.1,0.7c0.5,0,0.9-0.3,1.1-0.7h0.1c0.4,0,0.7,0.2,0.8,0.6l0.3,1c0.3,0.9,1.2,1.5,2.1,1.5
				C16,13.7,17.1,12.2,16.6,10.7z M6.2,4.4h4.6v1.3H6.2V4.4z M6.9,10.9c-0.3,0-0.6-0.2-0.7-0.5c0-0.1,0-0.1,0-0.2
				c0-0.4,0.3-0.7,0.7-0.7c0.4,0,0.7,0.3,0.7,0.7C7.7,10.6,7.4,10.9,6.9,10.9z M10.1,10.9c-0.4,0-0.7-0.3-0.7-0.7
				c0-0.4,0.3-0.7,0.7-0.7c0.4,0,0.7,0.3,0.7,0.7C10.8,10.6,10.5,10.9,10.1,10.9z M14.5,13.2c-0.7,0-1.4-0.5-1.7-1.2l-0.3-1
				c-0.2-0.5-0.7-0.9-1.2-0.9c0-0.7-0.5-1.3-1.2-1.3c-0.7,0-1.3,0.6-1.2,1.3H8.2c0-0.7-0.5-1.3-1.2-1.3c-0.7,0-1.3,0.6-1.2,1.3
				c-0.5,0-1,0.4-1.2,0.9l-0.3,1c-0.2,0.7-0.9,1.2-1.7,1.2c-1.2,0-2.1-1.2-1.7-2.3L2.9,5C3,4.6,3.3,4.4,3.7,4.4h2V6
				c0,0.1,0.1,0.2,0.2,0.2H11c0.1,0,0.2-0.1,0.2-0.2V4.4h2c0.4,0,0.7,0.2,0.8,0.6l2.1,5.9C16.6,12.1,15.7,13.2,14.5,13.2z"/>
			<path class="st0" d="M12.7,7.2c0.4,0,0.6-0.3,0.6-0.6c0-0.4-0.3-0.6-0.6-0.6s-0.6,0.3-0.6,0.6S12.4,7.2,12.7,7.2z M12.7,6.4
				c0.1,0,0.2,0.1,0.2,0.2c0,0.1-0.1,0.2-0.2,0.2s-0.2-0.1-0.2-0.2S12.6,6.4,12.7,6.4z"/>
			<path class="st0" d="M12.7,8.1c-0.4,0-0.6,0.3-0.6,0.6s0.3,0.6,0.6,0.6s0.6-0.3,0.6-0.6C13.4,8.4,13.1,8.1,12.7,8.1z M12.7,8.9
				c-0.1,0-0.2-0.1-0.2-0.2c0-0.1,0.1-0.2,0.2-0.2s0.2,0.1,0.2,0.2C12.9,8.9,12.8,8.9,12.7,8.9z"/>
			<path class="st0" d="M12.3,7.7C12.3,7.3,12,7,11.6,7S11,7.3,11,7.7c0,0.4,0.3,0.6,0.6,0.6C12,8.3,12.3,8,12.3,7.7z M11.6,7.8
				c-0.1,0-0.2-0.1-0.2-0.2c0-0.1,0.1-0.2,0.2-0.2s0.2,0.1,0.2,0.2C11.8,7.8,11.7,7.8,11.6,7.8z"/>
			<path class="st0" d="M13.8,7c-0.4,0-0.6,0.3-0.6,0.6c0,0.4,0.3,0.6,0.6,0.6s0.6-0.3,0.6-0.6C14.5,7.3,14.2,7,13.8,7z M13.8,7.8
				c-0.1,0-0.2-0.1-0.2-0.2c0-0.1,0.1-0.2,0.2-0.2c0.1,0,0.2,0.1,0.2,0.2C14,7.8,13.9,7.8,13.8,7.8z"/>
			<path class="st0" d="M5.8,7H4.9V6.2c0-0.1-0.1-0.2-0.2-0.2H3.8C3.7,5.9,3.6,6,3.6,6.2V7H2.7C2.6,7,2.5,7.1,2.5,7.3v0.8
				c0,0.1,0.1,0.2,0.2,0.2h0.9v0.9c0,0.1,0.1,0.2,0.2,0.2h0.8c0.1,0,0.2-0.1,0.2-0.2V8.3h0.9C5.9,8.3,6,8.2,6,8.1V7.3
				C6,7.1,5.9,7,5.8,7z M5.5,7.8H4.7c-0.1,0-0.2,0.1-0.2,0.2v0.9H4.1V8.1c0-0.1-0.1-0.2-0.2-0.2H3V7.5h0.9c0.1,0,0.2-0.1,0.2-0.2
				V6.4h0.3v0.9c0,0.1,0.1,0.2,0.2,0.2h0.9V7.8z"/>
		</g>
	</g>
</g>
</svg>
