<?xml version="1.0" encoding="utf-8"?>
<!-- Generator: Adobe Illustrator 26.3.1, SVG Export Plug-In . SVG Version: 6.00 Build 0)  -->
<svg version="1.1" id="Layer_1" xmlns="http://www.w3.org/2000/svg" xmlns:xlink="http://www.w3.org/1999/xlink" x="0px" y="0px"
	 viewBox="0 0 461 461" style="enable-background:new 0 0 461 461;" xml:space="preserve">
<style type="text/css">
	.st0{fill:#FFFFFF;}
</style>
<path class="st0" d="M430.5,221h-371l53.1-30.7c4.5-2.6,6.1-8.4,3.5-13c-2.6-4.5-8.4-6.1-13-3.5l-83.8,48.4
	c-2.9,1.7-4.8,4.8-4.8,8.2s1.8,6.5,4.8,8.2l83.8,48.4c1.5,0.9,3.1,1.3,4.7,1.3c3.3,0,6.5-1.7,8.2-4.8c2.6-4.5,1.1-10.4-3.5-13
	l-53-30.5h371c5.2,0,9.5-4.3,9.5-9.5S435.7,221,430.5,221z"/>
</svg>
