<?xml version="1.0" encoding="utf-8"?>
<!-- Generator: Adobe Illustrator 26.3.1, SVG Export Plug-In . SVG Version: 6.00 Build 0)  -->
<svg version="1.1" id="Calque_1" xmlns="http://www.w3.org/2000/svg" xmlns:xlink="http://www.w3.org/1999/xlink" x="0px" y="0px"
	 viewBox="0 0 17 17" style="enable-background:new 0 0 17 17;" xml:space="preserve">
<style type="text/css">
	.st0{fill:#FFFFFF;}
</style>
<g>
	<path class="st0" d="M8.5,2.2c2,0,2.3,0,3.1,0c0.7,0,1.2,0.2,1.4,0.3c0.4,0.1,0.6,0.3,0.9,0.6c0.3,0.3,0.4,0.5,0.6,0.9
		c0.1,0.3,0.2,0.7,0.3,1.4c0,0.8,0,1,0,3.1s0,2.3,0,3.1c0,0.7-0.2,1.2-0.3,1.4c-0.1,0.4-0.3,0.6-0.6,0.9c-0.3,0.3-0.5,0.4-0.9,0.6
		c-0.3,0.1-0.7,0.2-1.4,0.3c-0.8,0-1,0-3.1,0s-2.3,0-3.1,0c-0.7,0-1.2-0.2-1.4-0.3c-0.4-0.1-0.6-0.3-0.9-0.6S2.7,13.4,2.5,13
		c-0.1-0.3-0.2-0.7-0.3-1.4c0-0.8,0-1,0-3.1s0-2.3,0-3.1c0-0.7,0.2-1.2,0.3-1.4c0.1-0.4,0.3-0.6,0.6-0.9S3.6,2.7,4,2.5
		c0.3-0.1,0.7-0.2,1.4-0.3C6.2,2.2,6.5,2.2,8.5,2.2 M8.5,0.9c-2.1,0-2.3,0-3.2,0C4.5,0.9,4,1.1,3.5,1.3C3,1.4,2.6,1.7,2.1,2.1
		S1.4,3,1.3,3.5C1.1,4,0.9,4.5,0.9,5.3s0,1.1,0,3.2s0,2.3,0,3.2c0,0.8,0.2,1.4,0.4,1.9s0.5,0.9,0.9,1.4s0.9,0.7,1.4,0.9
		s1,0.3,1.9,0.4c0.8,0,1.1,0,3.2,0s2.3,0,3.2,0c0.8,0,1.4-0.2,1.9-0.4c0.5-0.2,0.9-0.5,1.4-0.9s0.7-0.9,0.9-1.4
		c0.2-0.5,0.3-1,0.4-1.9c0-0.8,0-1.1,0-3.2s0-2.3,0-3.2c0-0.8-0.2-1.4-0.4-1.9c-0.2-0.5-0.5-0.9-0.9-1.4S14,1.4,13.5,1.3
		c-0.5-0.2-1-0.3-1.9-0.4C10.8,0.9,10.6,0.9,8.5,0.9z M8.5,4.6c-2.2,0-3.9,1.8-3.9,3.9s1.8,3.9,3.9,3.9s3.9-1.8,3.9-3.9
		S10.7,4.6,8.5,4.6z M8.5,11C7.1,11,6,9.9,6,8.5S7.1,6,8.5,6S11,7.1,11,8.5S9.9,11,8.5,11z M13.5,4.4c0,0.5-0.4,0.9-0.9,0.9
		s-0.9-0.4-0.9-0.9s0.4-0.9,0.9-0.9S13.5,3.9,13.5,4.4z"/>
</g>
</svg>
