<?xml version="1.0" encoding="utf-8"?>
<!-- Generator: Adobe Illustrator 26.3.1, SVG Export Plug-In . SVG Version: 6.00 Build 0)  -->
<svg version="1.1" id="Calque_1" xmlns="http://www.w3.org/2000/svg" xmlns:xlink="http://www.w3.org/1999/xlink" x="0px" y="0px"
	 viewBox="0 0 17 17" style="enable-background:new 0 0 17 17;" xml:space="preserve">
<style type="text/css">
	.st0{fill:#C2C2C2;}
</style>
<path class="st0" d="M8.8,11.1c-0.6,0.7-1.2,1.2-1.3,1.2c-0.7-0.7-1.6-2.2-2.6-2.1c-1.3,0.1-3.7,3-3.6,3.4c0.2,1.2,2.3,2.9,2.9,3
	c1.2,0.3,2.3-0.2,3.7-1.3c2.2-1.5,5.9-6.1,7-8.5c0.8-1.6,1-2.8,0.6-4c-0.2-0.6-2.4-2.5-3.5-2.6c-0.4,0-2.6,2.7-2.5,4
	c0.1,1,1.6,1.7,2.4,2.3c-0.1,0.1-0.4,1-0.9,1.8C10.3,9.3,9.6,10.3,8.8,11.1z"/>
</svg>
