<?xml version="1.0" encoding="utf-8"?>
<!-- Generator: Adobe Illustrator 26.3.1, SVG Export Plug-In . SVG Version: 6.00 Build 0)  -->
<svg version="1.1" id="Calque_1" xmlns="http://www.w3.org/2000/svg" xmlns:xlink="http://www.w3.org/1999/xlink" x="0px" y="0px"
	 viewBox="0 0 17 17" style="enable-background:new 0 0 17 17;" xml:space="preserve">
<style type="text/css">
	.st0{fill:none;stroke:#F60B0E;stroke-width:0.35;stroke-miterlimit:10;}
</style>
<g>
	<g>
		<g>
			<path class="st0" d="M16.3,10.3c-0.9-0.7-1.9-1.2-2.1-1.3c0,0,0,0,0-0.1V7.6c0.2-0.1,0.3-0.3,0.3-0.5V5.5c0-0.7-0.6-1.3-1.3-1.3
				H13h-0.2c-0.7,0-1.3,0.6-1.3,1.3V7c0,0.2,0.1,0.4,0.3,0.5V9c0,0,0,0,0,0.1c-0.1,0.1-0.5,0.3-1.1,0.6c0.5,0.3,1.3,0.8,2.1,1.4
				c0.3,0.2,0.4,0.5,0.5,0.9h3.2v-1C16.5,10.7,16.5,10.5,16.3,10.3z"/>
		</g>
		<g>
			<path class="st0" d="M5.2,9C5.2,9,5.2,9,5.2,9l0-1.5C5.3,7.4,5.5,7.2,5.5,7V5.5c0-0.7-0.6-1.3-1.3-1.3H4H3.8
				c-0.7,0-1.3,0.6-1.3,1.3V7c0,0.2,0.1,0.4,0.3,0.5V9c0,0,0,0,0,0.1c-0.2,0.1-1.2,0.6-2.1,1.3c-0.2,0.1-0.3,0.3-0.3,0.5v1h3.2
				c0.1-0.3,0.2-0.6,0.5-0.9c0.8-0.6,1.6-1.1,2.1-1.4C5.8,9.3,5.3,9.1,5.2,9z"/>
		</g>
		<g>
			<path class="st0" d="M9,13.4h3.7v-1.2c0-0.3-0.1-0.5-0.3-0.7c-1.1-0.9-2.2-1.5-2.5-1.6c0,0,0,0,0-0.1V8.2
				c0.2-0.1,0.4-0.4,0.4-0.7V5.8c0-0.9-0.7-1.6-1.6-1.6H8.5H8.3c-0.9,0-1.6,0.7-1.6,1.6v1.7c0,0.3,0.1,0.5,0.4,0.7v1.7
				c0,0,0,0.1,0,0.1c-0.2,0.1-1.4,0.7-2.5,1.6c-0.2,0.2-0.3,0.4-0.3,0.7v1.2h3.7H9z"/>
		</g>
	</g>
</g>
</svg>
