<?xml version="1.0" encoding="utf-8"?>
<!-- Generator: Adobe Illustrator 26.3.1, SVG Export Plug-In . SVG Version: 6.00 Build 0)  -->
<svg version="1.1" id="Calque_1" xmlns="http://www.w3.org/2000/svg" xmlns:xlink="http://www.w3.org/1999/xlink" x="0px" y="0px"
	 viewBox="0 0 17 17" style="enable-background:new 0 0 17 17;" xml:space="preserve">
<style type="text/css">
	.st0{display:none;}
	.st1{display:inline;}
	.st2{fill:none;stroke:#262626;stroke-width:0.25;stroke-miterlimit:10;}
	.st3{fill:none;stroke:#262626;stroke-width:0.25;stroke-linecap:round;stroke-miterlimit:10;}
	.st4{fill:none;stroke:#FFFFFF;stroke-width:0.25;stroke-miterlimit:10;}
	.st5{fill:none;stroke:#FFFFFF;stroke-width:0.25;stroke-linecap:round;stroke-miterlimit:10;}
	.st6{display:inline;fill:none;stroke:#262626;stroke-width:0.25;stroke-miterlimit:10;}
	.st7{display:inline;fill:none;stroke:#262626;stroke-width:0.25;stroke-linecap:round;stroke-miterlimit:10;}
	
		.st8{display:inline;fill:none;stroke:#FFFFFF;stroke-width:0.25;stroke-linecap:round;stroke-linejoin:round;stroke-miterlimit:10;}
	.st9{display:inline;fill:#FFFFFF;}
	.st10{fill:none;stroke:#383838;stroke-width:0.25;stroke-miterlimit:10;}
	.st11{fill:none;stroke:#383838;stroke-width:0.25;stroke-linecap:round;stroke-miterlimit:10;}
	.st12{fill:#FFFFFF;}
	.st13{fill:none;stroke:#FFFFFF;stroke-width:0.35;stroke-linecap:round;stroke-miterlimit:10;}
</style>
<g id="Calque_1_00000018223548561558904280000014784226108653660813_" class="st0">
</g>
<g id="Calque_3" class="st0">
	<g id="Calque_2_00000177455137976013425760000009992409508908083090_" class="st1">
		<circle class="st2" cx="8.5" cy="8.5" r="5.7"/>
		<line class="st3" x1="4.2" y1="16.1" x2="5.6" y2="13.4"/>
		<line class="st3" x1="11.4" y1="3.5" x2="12.8" y2="1"/>
		<circle class="st4" cx="8.5" cy="8.6" r="2.4"/>
		<polyline class="st5" points="8.5,6.9 8.5,8.6 9.4,9.5 		"/>
	</g>
</g>
<g id="Calque_4" class="st0">
	<circle class="st6" cx="8.5" cy="8.5" r="5.7"/>
	<line class="st7" x1="4.2" y1="16.1" x2="5.6" y2="13.4"/>
	<line class="st7" x1="11.4" y1="3.5" x2="12.8" y2="1"/>
	<polyline class="st8" points="6,9.2 7.1,9.2 7.8,6.8 8.5,10.4 9.1,8.5 9.3,9.2 9.9,9.2 	"/>
	<circle class="st9" cx="10.2" cy="9.2" r="0.5"/>
</g>
<circle class="st10" cx="8.5" cy="8.5" r="5.7"/>
<line class="st11" x1="4.2" y1="16.1" x2="5.6" y2="13.4"/>
<line class="st11" x1="11.4" y1="3.5" x2="12.8" y2="0.9"/>
<path class="st5" d="M10.1,10.8h-3c-0.3,0-0.5-0.2-0.5-0.5V8.5C6.6,8.2,6.8,8,7.1,8h3c0.3,0,0.5,0.2,0.5,0.5v1.8
	C10.6,10.6,10.4,10.8,10.1,10.8z"/>
<path class="st5" d="M7.5,8V7.4c0-0.6,0.5-1.1,1.1-1.1s1.1,0.5,1.1,1.1V8"/>
<circle class="st12" cx="8.6" cy="9" r="0.3"/>
<line class="st13" x1="8.6" y1="9" x2="8.6" y2="10"/>
</svg>
