<?xml version="1.0" encoding="utf-8"?>
<!-- Generator: Adobe Illustrator 26.3.1, SVG Export Plug-In . SVG Version: 6.00 Build 0)  -->
<svg version="1.1" id="Calque_1" xmlns="http://www.w3.org/2000/svg" xmlns:xlink="http://www.w3.org/1999/xlink" x="0px" y="0px"
	 viewBox="0 0 17 17" style="enable-background:new 0 0 17 17;" xml:space="preserve">
<style type="text/css">
	.st0{fill-rule:evenodd;clip-rule:evenodd;fill:#C2C2C2;}
</style>
<g>
	<g transform="translate(1.000000, 1.000000)">
		<path class="st0" d="M8.9,8.6C8.6,9.1,8.2,10,7.7,10.8c-0.5,0.9-1.2-1.4-1.8-1.4c-0.7,0-1.3,2.2-1.9,1.3C3.4,9.9,3,9.1,2.7,8.6
			c-3.4,0-3.5,5-3.5,5h13.4C12.5,13.6,12.8,8.6,8.9,8.6L8.9,8.6z"/>
		<path class="st0" d="M8.4,3.8c0,1.6-1.1,4.6-2.5,4.6c-1.4,0-2.5-3-2.5-4.6C3.4,2.3,4.5,1,5.9,1C7.3,1,8.4,2.2,8.4,3.8L8.4,3.8z"/>
	</g>
</g>
<g>
	<g transform="translate(1.000000, 1.000000)">
		<path class="st0" d="M8.9,8.6C8.6,9.1,8.2,10,7.7,10.8c-0.5,0.9-1.2-1.4-1.8-1.4c-0.7,0-1.3,2.2-1.9,1.3C3.4,9.9,3,9.1,2.7,8.6
			c-3.4,0-3.5,5-3.5,5h13.4C12.5,13.6,12.8,8.6,8.9,8.6L8.9,8.6z"/>
		<path class="st0" d="M8.4,3.8c0,1.6-1.1,4.6-2.5,4.6c-1.4,0-2.5-3-2.5-4.6C3.4,2.3,4.5,1,5.9,1C7.3,1,8.4,2.2,8.4,3.8L8.4,3.8z"/>
	</g>
</g>
<path class="st0" d="M9.8,8.6c1,0,1.6,0.4,2.1,0.9c0.9-0.7,1.5-2.6,1.5-3.7c0-1.4-1-2.5-2.2-2.5c-0.4,0-0.9,0.2-1.2,0.4
	c0.1,0.3,0.2,0.6,0.2,1c0,0.8-0.3,2-0.8,3C9.5,8,9.7,8.3,9.8,8.6z"/>
<path class="st0" d="M13.7,10.2c-0.1,0.2-0.3,0.4-0.4,0.7c1.1,1.5,1,3.7,1,3.7h2.6C16.8,14.6,17.1,10.2,13.7,10.2z"/>
</svg>
